<?xml version="1.0" encoding="utf-8"?>
<svg viewBox="0 0 500 500" xmlns="http://www.w3.org/2000/svg">
  <g transform="matrix(0.155197, 0, 0, -0.155767, -230.360626, 560.180847)" fill="#000000" stroke="none" style="">
    <path d="M2865 3350 l-230 -230 -332 0 -333 0 0 -332 0 -333 -232 -232 -232 -233 232 -233 232 -233 0 -327 0 -327 328 0 328 0 238 -237 238 -236 236 236 237 237 328 0 327 0 0 328 0 327 230 230 c127 126 230 232 230 236 0 3 -103 109 -230 235 l-230 229 0 333 0 332 -333 0 -332 0 -230 230 c-126 127 -232 230 -235 230 -3 0 -109 -103 -235 -230z m378 -564 l133 -134 184 -1 c102 0 188 -1 193 -1 4 0 7 -86 7 -191 l0 -191 135 -134 c74 -74 135 -137 135 -142 0 -4 -61 -68 -135 -142 l-135 -135 0 -192 0 -193 -192 0 -193 0 -137 -137 -138 -137 -137 137 -138 137 -192 0 -193 0 0 192 0 193 -137 137 -138 138 137 138 138 137 2 194 3 193 190 -1 191 -1 134 135 c74 74 138 135 142 135 4 0 68 -60 141 -134z"/>
    <path d="M3155 2436 c-11 -7 -162 -93 -335 -191 -173 -98 -318 -183 -322 -189 -4 -6 -8 -55 -8 -108 0 -99 5 -113 47 -136 12 -7 13 -13 4 -30 -17 -33 -14 -62 8 -62 10 0 25 -10 33 -22 l15 -23 16 32 c9 17 21 34 26 37 5 3 95 -44 200 -104 171 -99 193 -109 213 -99 13 7 120 67 238 134 118 67 261 148 318 180 56 32 102 62 102 66 0 14 -56 39 -66 29 -8 -7 -229 -135 -384 -222 -25 -14 -94 -53 -153 -87 l-108 -61 -117 68 c-64 38 -136 79 -159 92 -24 13 -43 27 -43 31 0 4 16 13 36 21 l37 15 -49 27 c-47 26 -49 27 -85 11 -21 -10 -46 -14 -58 -10 -19 6 -21 13 -21 105 l0 98 241 -139 c132 -76 245 -139 252 -139 7 0 50 22 97 49 47 27 155 88 240 136 232 131 340 195 340 203 0 9 -499 296 -519 299 -9 1 -25 -4 -36 -11z"/>
  </g>
</svg>